<svg role="img" viewBox="0 0 24 24" xmlns="http://www.w3.org/2000/svg">
	<title>Telegram</title>
	<path fill="url(#gradient-fill)" d="M11.944 0A12 12 0 0 0 0 12a12 12 0 0 0 12 12 12 12 0 0 0 12-12A12 12 0 0 0 12 0a12 12 0 0 0-.056 0zm4.962 7.224c.1-.002.321.023.465.14a.506.506 0 0 1 .171.325c.016.093.036.306.02.472-.18 1.898-.962 6.502-1.36 8.627-.168.9-.499 1.201-.82 1.23-.696.065-1.225-.46-1.9-.902-1.056-.693-1.653-1.124-2.678-1.8-1.185-.78-.417-1.21.258-1.91.177-.184 3.247-2.977 3.307-3.23.007-.032.014-.15-.056-.212s-.174-.041-.249-.024c-.106.024-1.793 1.14-5.061 3.345-.48.33-.913.49-1.302.48-.428-.008-1.252-.241-1.865-.44-.752-.245-1.349-.374-1.297-.789.027-.216.325-.437.893-.663 3.498-1.524 5.83-2.529 6.998-3.014 3.332-1.386 4.025-1.627 4.476-1.635z"/>
<defs>
		<linearGradient id="gradient-fill" x1="0" y1="0" x2="24" y2="0" gradientUnits="userSpaceOnUse">

			<stop offset="0" stop-color="#56bcf1" />

			<stop offset="0.09090909090909091" stop-color="#3db5f5" />

			<stop offset="0.18181818181818182" stop-color="#1badf8" />

			<stop offset="0.2727272727272727" stop-color="#00a5fb" />

			<stop offset="0.36363636363636365" stop-color="#009dfe" />

			<stop offset="0.4545454545454546" stop-color="#0094ff" />

			<stop offset="0.5454545454545454" stop-color="#008aff" />

			<stop offset="0.6363636363636364" stop-color="#0080ff" />

			<stop offset="0.7272727272727273" stop-color="#0075fe" />

			<stop offset="0.8181818181818182" stop-color="#286afb" />

			<stop offset="0.9090909090909092" stop-color="#445cf6" />

			<stop offset="1" stop-color="#5a4def" />

		</linearGradient>
	</defs>
</svg>