<svg role="img" viewBox="0 0 24 24" xmlns="http://www.w3.org/2000/svg">
	<title>Twitter</title>
	<path fill="url(#gradient-fill)" d="M23.953 4.57a10 10 0 01-2.825.775 4.958 4.958 0 002.163-2.723c-.951.555-2.005.959-3.127 1.184a4.92 4.92 0 00-8.384 4.482C7.69 8.095 4.067 6.13 1.64 3.162a4.822 4.822 0 00-.666 2.475c0 1.71.87 3.213 2.188 4.096a4.904 4.904 0 01-2.228-.616v.06a4.923 4.923 0 003.946 4.827 4.996 4.996 0 01-2.212.085 4.936 4.936 0 004.604 3.417 9.867 9.867 0 01-6.102 2.105c-.39 0-.779-.023-1.17-.067a13.995 13.995 0 007.557 2.209c9.053 0 13.998-7.496 13.998-13.985 0-.21 0-.42-.015-.63A9.935 9.935 0 0024 4.59z"/>
<defs>
		<linearGradient id="gradient-fill" x1="0" y1="0" x2="24" y2="0" gradientUnits="userSpaceOnUse">

			<stop offset="0" stop-color="#56bcf1" />

			<stop offset="0.09090909090909091" stop-color="#3db5f5" />

			<stop offset="0.18181818181818182" stop-color="#1badf8" />

			<stop offset="0.2727272727272727" stop-color="#00a5fb" />

			<stop offset="0.36363636363636365" stop-color="#009dfe" />

			<stop offset="0.4545454545454546" stop-color="#0094ff" />

			<stop offset="0.5454545454545454" stop-color="#008aff" />

			<stop offset="0.6363636363636364" stop-color="#0080ff" />

			<stop offset="0.7272727272727273" stop-color="#0075fe" />

			<stop offset="0.8181818181818182" stop-color="#286afb" />

			<stop offset="0.9090909090909092" stop-color="#445cf6" />

			<stop offset="1" stop-color="#5a4def" />

		</linearGradient>
	</defs>
</svg>